<mxfile host="Electron" agent="Mozilla/5.0 (Windows NT 10.0; Win64; x64) AppleWebKit/537.36 (KHTML, like Gecko) draw.io/24.7.8 Chrome/128.0.6613.36 Electron/32.0.1 Safari/537.36" version="24.7.8">
  <diagram name="Page-1" id="OGSR9eSyXzq0Sl8hqs9H">
    <mxGraphModel dx="3615" dy="2655" grid="1" gridSize="10" guides="1" tooltips="1" connect="1" arrows="1" fold="1" page="1" pageScale="1" pageWidth="850" pageHeight="1100" math="0" shadow="0">
      <root>
        <mxCell id="0" />
        <mxCell id="1" parent="0" />
        <mxCell id="MRuk5xu8n_4XYFxF9KF4-117" value="RoundManager" style="swimlane;fontStyle=1;align=center;verticalAlign=top;childLayout=stackLayout;horizontal=1;startSize=24.58823529411765;horizontalStack=0;resizeParent=1;resizeParentMax=0;resizeLast=0;collapsible=0;marginBottom=0;fontSize=15;" vertex="1" parent="1">
          <mxGeometry x="370" y="120" width="480" height="432.5882352941177" as="geometry" />
        </mxCell>
        <mxCell id="MRuk5xu8n_4XYFxF9KF4-118" value="-DifficultyCalculator difficultyCalculator" style="text;strokeColor=none;fillColor=none;align=left;verticalAlign=top;spacingLeft=4;spacingRight=4;overflow=hidden;rotatable=0;points=[[0,0.5],[1,0.5]];portConstraint=eastwest;fontSize=15;" vertex="1" parent="MRuk5xu8n_4XYFxF9KF4-117">
          <mxGeometry y="24.58823529411765" width="480" height="25" as="geometry" />
        </mxCell>
        <mxCell id="MRuk5xu8n_4XYFxF9KF4-119" value="-Level levelData" style="text;strokeColor=none;fillColor=none;align=left;verticalAlign=top;spacingLeft=4;spacingRight=4;overflow=hidden;rotatable=0;points=[[0,0.5],[1,0.5]];portConstraint=eastwest;fontSize=15;" vertex="1" parent="MRuk5xu8n_4XYFxF9KF4-117">
          <mxGeometry y="49.58823529411765" width="480" height="25" as="geometry" />
        </mxCell>
        <mxCell id="MRuk5xu8n_4XYFxF9KF4-120" value="-List&lt;SpawnOrder&gt; spawnQueue" style="text;strokeColor=none;fillColor=none;align=left;verticalAlign=top;spacingLeft=4;spacingRight=4;overflow=hidden;rotatable=0;points=[[0,0.5],[1,0.5]];portConstraint=eastwest;fontSize=15;" vertex="1" parent="MRuk5xu8n_4XYFxF9KF4-117">
          <mxGeometry y="74.58823529411765" width="480" height="25" as="geometry" />
        </mxCell>
        <mxCell id="MRuk5xu8n_4XYFxF9KF4-121" value="-List&lt;BaseChicken&gt; liveEnemies" style="text;strokeColor=none;fillColor=none;align=left;verticalAlign=top;spacingLeft=4;spacingRight=4;overflow=hidden;rotatable=0;points=[[0,0.5],[1,0.5]];portConstraint=eastwest;fontSize=15;" vertex="1" parent="MRuk5xu8n_4XYFxF9KF4-117">
          <mxGeometry y="99.58823529411765" width="480" height="25" as="geometry" />
        </mxCell>
        <mxCell id="MRuk5xu8n_4XYFxF9KF4-122" value="-double currentTime" style="text;strokeColor=none;fillColor=none;align=left;verticalAlign=top;spacingLeft=4;spacingRight=4;overflow=hidden;rotatable=0;points=[[0,0.5],[1,0.5]];portConstraint=eastwest;fontSize=15;" vertex="1" parent="MRuk5xu8n_4XYFxF9KF4-117">
          <mxGeometry y="124.58823529411765" width="480" height="25" as="geometry" />
        </mxCell>
        <mxCell id="MRuk5xu8n_4XYFxF9KF4-123" value="-double nextSpawnTime" style="text;strokeColor=none;fillColor=none;align=left;verticalAlign=top;spacingLeft=4;spacingRight=4;overflow=hidden;rotatable=0;points=[[0,0.5],[1,0.5]];portConstraint=eastwest;fontSize=15;" vertex="1" parent="MRuk5xu8n_4XYFxF9KF4-117">
          <mxGeometry y="149.58823529411765" width="480" height="25" as="geometry" />
        </mxCell>
        <mxCell id="MRuk5xu8n_4XYFxF9KF4-124" value="-bool roundRunning" style="text;strokeColor=none;fillColor=none;align=left;verticalAlign=top;spacingLeft=4;spacingRight=4;overflow=hidden;rotatable=0;points=[[0,0.5],[1,0.5]];portConstraint=eastwest;fontSize=15;" vertex="1" parent="MRuk5xu8n_4XYFxF9KF4-117">
          <mxGeometry y="174.58823529411765" width="480" height="25" as="geometry" />
        </mxCell>
        <mxCell id="MRuk5xu8n_4XYFxF9KF4-125" style="line;strokeWidth=1;fillColor=none;align=left;verticalAlign=middle;spacingTop=-1;spacingLeft=3;spacingRight=3;rotatable=0;labelPosition=right;points=[];portConstraint=eastwest;strokeColor=inherit;fontSize=15;" vertex="1" parent="MRuk5xu8n_4XYFxF9KF4-117">
          <mxGeometry y="199.58823529411765" width="480" height="8" as="geometry" />
        </mxCell>
        <mxCell id="MRuk5xu8n_4XYFxF9KF4-126" value="+loadLevel(Level levelData, Difficulty difficulty) : void" style="text;strokeColor=none;fillColor=none;align=left;verticalAlign=top;spacingLeft=4;spacingRight=4;overflow=hidden;rotatable=0;points=[[0,0.5],[1,0.5]];portConstraint=eastwest;fontSize=15;" vertex="1" parent="MRuk5xu8n_4XYFxF9KF4-117">
          <mxGeometry y="207.58823529411765" width="480" height="25" as="geometry" />
        </mxCell>
        <mxCell id="MRuk5xu8n_4XYFxF9KF4-127" value="+startRound() : void" style="text;strokeColor=none;fillColor=none;align=left;verticalAlign=top;spacingLeft=4;spacingRight=4;overflow=hidden;rotatable=0;points=[[0,0.5],[1,0.5]];portConstraint=eastwest;fontSize=15;" vertex="1" parent="MRuk5xu8n_4XYFxF9KF4-117">
          <mxGeometry y="232.58823529411765" width="480" height="25" as="geometry" />
        </mxCell>
        <mxCell id="MRuk5xu8n_4XYFxF9KF4-128" value="+spawnEnemy() : void" style="text;strokeColor=none;fillColor=none;align=left;verticalAlign=top;spacingLeft=4;spacingRight=4;overflow=hidden;rotatable=0;points=[[0,0.5],[1,0.5]];portConstraint=eastwest;fontSize=15;" vertex="1" parent="MRuk5xu8n_4XYFxF9KF4-117">
          <mxGeometry y="257.5882352941177" width="480" height="25" as="geometry" />
        </mxCell>
        <mxCell id="MRuk5xu8n_4XYFxF9KF4-129" value="-HandleEnemyDiesSignal(Chicken.BaseChicken enemy) : void" style="text;strokeColor=none;fillColor=none;align=left;verticalAlign=top;spacingLeft=4;spacingRight=4;overflow=hidden;rotatable=0;points=[[0,0.5],[1,0.5]];portConstraint=eastwest;fontSize=15;" vertex="1" parent="MRuk5xu8n_4XYFxF9KF4-117">
          <mxGeometry y="282.5882352941177" width="480" height="25" as="geometry" />
        </mxCell>
        <mxCell id="MRuk5xu8n_4XYFxF9KF4-130" value="-HandleEnemyFinishedSignal(Chicken.BaseChicken enemy) : void" style="text;strokeColor=none;fillColor=none;align=left;verticalAlign=top;spacingLeft=4;spacingRight=4;overflow=hidden;rotatable=0;points=[[0,0.5],[1,0.5]];portConstraint=eastwest;fontSize=15;" vertex="1" parent="MRuk5xu8n_4XYFxF9KF4-117">
          <mxGeometry y="307.5882352941177" width="480" height="25" as="geometry" />
        </mxCell>
        <mxCell id="MRuk5xu8n_4XYFxF9KF4-131" value="-cleanLevel() : void" style="text;strokeColor=none;fillColor=none;align=left;verticalAlign=top;spacingLeft=4;spacingRight=4;overflow=hidden;rotatable=0;points=[[0,0.5],[1,0.5]];portConstraint=eastwest;fontSize=15;" vertex="1" parent="MRuk5xu8n_4XYFxF9KF4-117">
          <mxGeometry y="332.5882352941177" width="480" height="25" as="geometry" />
        </mxCell>
        <mxCell id="MRuk5xu8n_4XYFxF9KF4-132" value="-onLevelLoadSignal(Level level) : void" style="text;strokeColor=none;fillColor=none;align=left;verticalAlign=top;spacingLeft=4;spacingRight=4;overflow=hidden;rotatable=0;points=[[0,0.5],[1,0.5]];portConstraint=eastwest;fontSize=15;" vertex="1" parent="MRuk5xu8n_4XYFxF9KF4-117">
          <mxGeometry y="357.5882352941177" width="480" height="25" as="geometry" />
        </mxCell>
        <mxCell id="MRuk5xu8n_4XYFxF9KF4-133" value="+GameLostEventHandler() : void" style="text;strokeColor=none;fillColor=none;align=left;verticalAlign=top;spacingLeft=4;spacingRight=4;overflow=hidden;rotatable=0;points=[[0,0.5],[1,0.5]];portConstraint=eastwest;fontSize=15;" vertex="1" parent="MRuk5xu8n_4XYFxF9KF4-117">
          <mxGeometry y="382.5882352941177" width="480" height="25" as="geometry" />
        </mxCell>
        <mxCell id="MRuk5xu8n_4XYFxF9KF4-134" value="+GameWonEventHandler() : void" style="text;strokeColor=none;fillColor=none;align=left;verticalAlign=top;spacingLeft=4;spacingRight=4;overflow=hidden;rotatable=0;points=[[0,0.5],[1,0.5]];portConstraint=eastwest;fontSize=15;" vertex="1" parent="MRuk5xu8n_4XYFxF9KF4-117">
          <mxGeometry y="407.5882352941177" width="480" height="25" as="geometry" />
        </mxCell>
        <mxCell id="MRuk5xu8n_4XYFxF9KF4-135" value="SpawnOrder" style="swimlane;fontStyle=1;align=center;verticalAlign=top;childLayout=stackLayout;horizontal=1;startSize=29.75;horizontalStack=0;resizeParent=1;resizeParentMax=0;resizeLast=0;collapsible=0;marginBottom=0;fontSize=15;" vertex="1" parent="1">
          <mxGeometry x="860" y="740" width="500" height="127.75" as="geometry" />
        </mxCell>
        <mxCell id="MRuk5xu8n_4XYFxF9KF4-136" value="+Enemy BaseChicken" style="text;strokeColor=none;fillColor=none;align=left;verticalAlign=top;spacingLeft=4;spacingRight=4;overflow=hidden;rotatable=0;points=[[0,0.5],[1,0.5]];portConstraint=eastwest;fontSize=15;" vertex="1" parent="MRuk5xu8n_4XYFxF9KF4-135">
          <mxGeometry y="29.75" width="500" height="30" as="geometry" />
        </mxCell>
        <mxCell id="MRuk5xu8n_4XYFxF9KF4-137" value="+spawnDelay int" style="text;strokeColor=none;fillColor=none;align=left;verticalAlign=top;spacingLeft=4;spacingRight=4;overflow=hidden;rotatable=0;points=[[0,0.5],[1,0.5]];portConstraint=eastwest;fontSize=15;" vertex="1" parent="MRuk5xu8n_4XYFxF9KF4-135">
          <mxGeometry y="59.75" width="500" height="30" as="geometry" />
        </mxCell>
        <mxCell id="MRuk5xu8n_4XYFxF9KF4-138" style="line;strokeWidth=1;fillColor=none;align=left;verticalAlign=middle;spacingTop=-1;spacingLeft=3;spacingRight=3;rotatable=0;labelPosition=right;points=[];portConstraint=eastwest;strokeColor=inherit;fontSize=15;" vertex="1" parent="MRuk5xu8n_4XYFxF9KF4-135">
          <mxGeometry y="89.75" width="500" height="8" as="geometry" />
        </mxCell>
        <mxCell id="MRuk5xu8n_4XYFxF9KF4-139" value="+SpawnOrder(Chicken.BaseChicken enemyType, int spawnDelay) : SpawnOrder" style="text;strokeColor=none;fillColor=none;align=left;verticalAlign=top;spacingLeft=4;spacingRight=4;overflow=hidden;rotatable=0;points=[[0,0.5],[1,0.5]];portConstraint=eastwest;fontSize=15;" vertex="1" parent="MRuk5xu8n_4XYFxF9KF4-135">
          <mxGeometry y="97.75" width="500" height="30" as="geometry" />
        </mxCell>
        <mxCell id="MRuk5xu8n_4XYFxF9KF4-140" value="DifficultyCalculatorFactory" style="swimlane;fontStyle=1;align=center;verticalAlign=top;childLayout=stackLayout;horizontal=1;startSize=29.2;horizontalStack=0;resizeParent=1;resizeParentMax=0;resizeLast=0;collapsible=0;marginBottom=0;fontSize=15;" vertex="1" parent="1">
          <mxGeometry x="1290" y="1120" width="673" height="66.2" as="geometry" />
        </mxCell>
        <mxCell id="MRuk5xu8n_4XYFxF9KF4-141" style="line;strokeWidth=1;fillColor=none;align=left;verticalAlign=middle;spacingTop=-1;spacingLeft=3;spacingRight=3;rotatable=0;labelPosition=right;points=[];portConstraint=eastwest;strokeColor=inherit;fontSize=15;" vertex="1" parent="MRuk5xu8n_4XYFxF9KF4-140">
          <mxGeometry y="29.2" width="673" height="8" as="geometry" />
        </mxCell>
        <mxCell id="MRuk5xu8n_4XYFxF9KF4-142" value="+CreateCalculator(DifficultyTable difficultyTable, Difficulty difficulty) : DifficultyCalculator" style="text;strokeColor=none;fillColor=none;align=left;verticalAlign=top;spacingLeft=4;spacingRight=4;overflow=hidden;rotatable=0;points=[[0,0.5],[1,0.5]];portConstraint=eastwest;fontSize=15;" vertex="1" parent="MRuk5xu8n_4XYFxF9KF4-140">
          <mxGeometry y="37.2" width="673" height="29" as="geometry" />
        </mxCell>
        <mxCell id="MRuk5xu8n_4XYFxF9KF4-150" value="EasyDifficultyCalculator" style="swimlane;fontStyle=1;align=center;verticalAlign=top;childLayout=stackLayout;horizontal=1;startSize=27.428571428571427;horizontalStack=0;resizeParent=1;resizeParentMax=0;resizeLast=0;collapsible=0;marginBottom=0;fontSize=15;" vertex="1" parent="1">
          <mxGeometry x="1063" y="181" width="658" height="89.42857142857143" as="geometry" />
        </mxCell>
        <mxCell id="MRuk5xu8n_4XYFxF9KF4-151" style="line;strokeWidth=1;fillColor=none;align=left;verticalAlign=middle;spacingTop=-1;spacingLeft=3;spacingRight=3;rotatable=0;labelPosition=right;points=[];portConstraint=eastwest;strokeColor=inherit;fontSize=15;" vertex="1" parent="MRuk5xu8n_4XYFxF9KF4-150">
          <mxGeometry y="27.428571428571427" width="658" height="8" as="geometry" />
        </mxCell>
        <mxCell id="MRuk5xu8n_4XYFxF9KF4-152" value="~EasyDifficultyCalculator(DifficultyTable difficultyTable) : EasyDifficultyCalculator" style="text;strokeColor=none;fillColor=none;align=left;verticalAlign=top;spacingLeft=4;spacingRight=4;overflow=hidden;rotatable=0;points=[[0,0.5],[1,0.5]];portConstraint=eastwest;fontSize=15;" vertex="1" parent="MRuk5xu8n_4XYFxF9KF4-150">
          <mxGeometry y="35.42857142857143" width="658" height="27" as="geometry" />
        </mxCell>
        <mxCell id="MRuk5xu8n_4XYFxF9KF4-153" value="+CalculateSpawnOrder(int roundNumber) : System.Collections.Generic.List&lt;SpawnOrder&gt;" style="text;strokeColor=none;fillColor=none;align=left;verticalAlign=top;spacingLeft=4;spacingRight=4;overflow=hidden;rotatable=0;points=[[0,0.5],[1,0.5]];portConstraint=eastwest;fontSize=15;" vertex="1" parent="MRuk5xu8n_4XYFxF9KF4-150">
          <mxGeometry y="62.42857142857143" width="658" height="27" as="geometry" />
        </mxCell>
        <mxCell id="MRuk5xu8n_4XYFxF9KF4-154" value="MediumDifficultyCalculator" style="swimlane;fontStyle=1;align=center;verticalAlign=top;childLayout=stackLayout;horizontal=1;startSize=27.428571428571427;horizontalStack=0;resizeParent=1;resizeParentMax=0;resizeLast=0;collapsible=0;marginBottom=0;fontSize=15;" vertex="1" parent="1">
          <mxGeometry x="1760" y="181" width="658" height="89.42857142857143" as="geometry" />
        </mxCell>
        <mxCell id="MRuk5xu8n_4XYFxF9KF4-155" style="line;strokeWidth=1;fillColor=none;align=left;verticalAlign=middle;spacingTop=-1;spacingLeft=3;spacingRight=3;rotatable=0;labelPosition=right;points=[];portConstraint=eastwest;strokeColor=inherit;fontSize=15;" vertex="1" parent="MRuk5xu8n_4XYFxF9KF4-154">
          <mxGeometry y="27.428571428571427" width="658" height="8" as="geometry" />
        </mxCell>
        <mxCell id="MRuk5xu8n_4XYFxF9KF4-156" value="~MediumDifficultyCalculator(DifficultyTable difficultyTable) : MediumDifficultyCalculator" style="text;strokeColor=none;fillColor=none;align=left;verticalAlign=top;spacingLeft=4;spacingRight=4;overflow=hidden;rotatable=0;points=[[0,0.5],[1,0.5]];portConstraint=eastwest;fontSize=15;" vertex="1" parent="MRuk5xu8n_4XYFxF9KF4-154">
          <mxGeometry y="35.42857142857143" width="658" height="27" as="geometry" />
        </mxCell>
        <mxCell id="MRuk5xu8n_4XYFxF9KF4-157" value="+CalculateSpawnOrder(int roundNumber) : System.Collections.Generic.List&lt;SpawnOrder&gt;" style="text;strokeColor=none;fillColor=none;align=left;verticalAlign=top;spacingLeft=4;spacingRight=4;overflow=hidden;rotatable=0;points=[[0,0.5],[1,0.5]];portConstraint=eastwest;fontSize=15;" vertex="1" parent="MRuk5xu8n_4XYFxF9KF4-154">
          <mxGeometry y="62.42857142857143" width="658" height="27" as="geometry" />
        </mxCell>
        <mxCell id="MRuk5xu8n_4XYFxF9KF4-158" value="HardDifficultyCalculator" style="swimlane;fontStyle=1;align=center;verticalAlign=top;childLayout=stackLayout;horizontal=1;startSize=27.428571428571427;horizontalStack=0;resizeParent=1;resizeParentMax=0;resizeLast=0;collapsible=0;marginBottom=0;fontSize=15;" vertex="1" parent="1">
          <mxGeometry x="2435" y="181" width="658" height="89.42857142857143" as="geometry" />
        </mxCell>
        <mxCell id="MRuk5xu8n_4XYFxF9KF4-159" style="line;strokeWidth=1;fillColor=none;align=left;verticalAlign=middle;spacingTop=-1;spacingLeft=3;spacingRight=3;rotatable=0;labelPosition=right;points=[];portConstraint=eastwest;strokeColor=inherit;fontSize=15;" vertex="1" parent="MRuk5xu8n_4XYFxF9KF4-158">
          <mxGeometry y="27.428571428571427" width="658" height="8" as="geometry" />
        </mxCell>
        <mxCell id="MRuk5xu8n_4XYFxF9KF4-160" value="~HardDifficultyCalculator(DifficultyTable difficultyTable) : HardDifficultyCalculator" style="text;strokeColor=none;fillColor=none;align=left;verticalAlign=top;spacingLeft=4;spacingRight=4;overflow=hidden;rotatable=0;points=[[0,0.5],[1,0.5]];portConstraint=eastwest;fontSize=15;" vertex="1" parent="MRuk5xu8n_4XYFxF9KF4-158">
          <mxGeometry y="35.42857142857143" width="658" height="27" as="geometry" />
        </mxCell>
        <mxCell id="MRuk5xu8n_4XYFxF9KF4-161" value="+CalculateSpawnOrder(int roundNumber) : System.Collections.Generic.List&lt;SpawnOrder&gt;" style="text;strokeColor=none;fillColor=none;align=left;verticalAlign=top;spacingLeft=4;spacingRight=4;overflow=hidden;rotatable=0;points=[[0,0.5],[1,0.5]];portConstraint=eastwest;fontSize=15;" vertex="1" parent="MRuk5xu8n_4XYFxF9KF4-158">
          <mxGeometry y="62.42857142857143" width="658" height="27" as="geometry" />
        </mxCell>
        <mxCell id="MRuk5xu8n_4XYFxF9KF4-162" value="" style="curved=0;startArrow=diamondThin;startSize=14;startFill=0;endArrow=none;entryX=0;entryY=0.083;rounded=0;exitX=1;exitY=0.5;exitDx=0;exitDy=0;entryDx=0;entryDy=0;entryPerimeter=0;fontSize=15;" edge="1" parent="1" source="MRuk5xu8n_4XYFxF9KF4-126" target="MRuk5xu8n_4XYFxF9KF4-143">
          <mxGeometry relative="1" as="geometry">
            <Array as="points">
              <mxPoint x="1250" y="340" />
              <mxPoint x="1250" y="685" />
            </Array>
          </mxGeometry>
        </mxCell>
        <mxCell id="MRuk5xu8n_4XYFxF9KF4-163" value="1" style="edgeLabel;resizable=0;labelBackgroundColor=none;fontSize=15;align=left;verticalAlign=top;" vertex="1" parent="MRuk5xu8n_4XYFxF9KF4-162">
          <mxGeometry x="-1" relative="1" as="geometry" />
        </mxCell>
        <mxCell id="MRuk5xu8n_4XYFxF9KF4-164" value="" style="curved=0;startArrow=none;endArrow=none;exitX=0.897;exitY=1.043;entryX=0.25;entryY=0;rounded=0;exitDx=0;exitDy=0;exitPerimeter=0;entryDx=0;entryDy=0;fontSize=15;" edge="1" parent="1" source="MRuk5xu8n_4XYFxF9KF4-134" target="MRuk5xu8n_4XYFxF9KF4-140">
          <mxGeometry relative="1" as="geometry">
            <Array as="points">
              <mxPoint x="800" y="660" />
              <mxPoint x="800" y="1010" />
              <mxPoint x="1180" y="1010" />
              <mxPoint x="1458" y="1010" />
            </Array>
          </mxGeometry>
        </mxCell>
        <mxCell id="MRuk5xu8n_4XYFxF9KF4-165" value="" style="curved=0;dashed=1;startArrow=block;startSize=16;startFill=0;endArrow=none;exitX=0.5;exitY=1;entryX=0.415;entryY=-0.015;rounded=0;entryDx=0;entryDy=0;entryPerimeter=0;fontSize=15;" edge="1" parent="1" source="MRuk5xu8n_4XYFxF9KF4-150" target="MRuk5xu8n_4XYFxF9KF4-140">
          <mxGeometry relative="1" as="geometry">
            <Array as="points">
              <mxPoint x="1392" y="560" />
              <mxPoint x="1569" y="560" />
            </Array>
          </mxGeometry>
        </mxCell>
        <mxCell id="MRuk5xu8n_4XYFxF9KF4-166" value="" style="curved=0;dashed=1;startArrow=block;startSize=16;startFill=0;endArrow=none;exitX=0.29;exitY=1;entryX=0.594;entryY=0;rounded=0;entryDx=0;entryDy=0;entryPerimeter=0;fontSize=15;" edge="1" parent="1" source="MRuk5xu8n_4XYFxF9KF4-154" target="MRuk5xu8n_4XYFxF9KF4-140">
          <mxGeometry relative="1" as="geometry">
            <Array as="points">
              <mxPoint x="1950" y="400" />
              <mxPoint x="1690" y="400" />
            </Array>
          </mxGeometry>
        </mxCell>
        <mxCell id="MRuk5xu8n_4XYFxF9KF4-167" value="" style="curved=0;dashed=1;startArrow=block;startSize=16;startFill=0;endArrow=none;exitX=0.673;exitY=1.058;entryX=0.75;entryY=0;rounded=0;entryDx=0;entryDy=0;exitDx=0;exitDy=0;exitPerimeter=0;fontSize=15;" edge="1" parent="1" source="MRuk5xu8n_4XYFxF9KF4-161" target="MRuk5xu8n_4XYFxF9KF4-140">
          <mxGeometry relative="1" as="geometry">
            <Array as="points">
              <mxPoint x="2880" y="1010" />
              <mxPoint x="1795" y="1010" />
            </Array>
          </mxGeometry>
        </mxCell>
        <mxCell id="MRuk5xu8n_4XYFxF9KF4-168" value="" style="curved=0;startArrow=diamondThin;startSize=14;startFill=0;endArrow=none;exitX=0.5;exitY=0;entryX=0.5;entryY=0;rounded=0;entryDx=0;entryDy=0;exitDx=0;exitDy=0;fontSize=15;" edge="1" parent="1" source="MRuk5xu8n_4XYFxF9KF4-150" target="MRuk5xu8n_4XYFxF9KF4-135">
          <mxGeometry relative="1" as="geometry">
            <Array as="points">
              <mxPoint x="1392" y="100" />
              <mxPoint x="1000" y="100" />
              <mxPoint x="1000" y="470" />
              <mxPoint x="1110" y="470" />
            </Array>
          </mxGeometry>
        </mxCell>
        <mxCell id="MRuk5xu8n_4XYFxF9KF4-169" value="" style="curved=0;startArrow=diamondThin;startSize=14;startFill=0;endArrow=none;exitX=0.002;exitY=1.054;rounded=0;exitDx=0;exitDy=0;exitPerimeter=0;fontSize=15;" edge="1" parent="1" source="MRuk5xu8n_4XYFxF9KF4-147">
          <mxGeometry relative="1" as="geometry">
            <Array as="points" />
            <mxPoint x="1350" y="791" as="targetPoint" />
          </mxGeometry>
        </mxCell>
        <mxCell id="MRuk5xu8n_4XYFxF9KF4-171" value="" style="curved=0;startArrow=diamondThin;startSize=14;startFill=0;endArrow=none;entryX=0;entryY=0.5;rounded=0;entryDx=0;entryDy=0;fontSize=15;" edge="1" parent="1" source="MRuk5xu8n_4XYFxF9KF4-117" target="MRuk5xu8n_4XYFxF9KF4-137">
          <mxGeometry relative="1" as="geometry">
            <Array as="points">
              <mxPoint x="610" y="815" />
            </Array>
          </mxGeometry>
        </mxCell>
        <mxCell id="MRuk5xu8n_4XYFxF9KF4-172" value="" style="curved=0;startArrow=none;endArrow=block;endSize=16;endFill=0;exitX=0.607;exitY=1.055;entryX=0.39;entryY=0.011;rounded=0;exitDx=0;exitDy=0;exitPerimeter=0;entryDx=0;entryDy=0;entryPerimeter=0;fontSize=15;" edge="1" parent="1" source="MRuk5xu8n_4XYFxF9KF4-153" target="MRuk5xu8n_4XYFxF9KF4-143">
          <mxGeometry relative="1" as="geometry">
            <Array as="points">
              <mxPoint x="1460" y="500" />
              <mxPoint x="2020" y="500" />
            </Array>
          </mxGeometry>
        </mxCell>
        <mxCell id="MRuk5xu8n_4XYFxF9KF4-173" value="" style="curved=0;startArrow=none;endArrow=block;endSize=16;endFill=0;entryX=0.5;entryY=0;rounded=0;fontSize=15;" edge="1" parent="1" source="MRuk5xu8n_4XYFxF9KF4-157" target="MRuk5xu8n_4XYFxF9KF4-143">
          <mxGeometry relative="1" as="geometry" />
        </mxCell>
        <mxCell id="MRuk5xu8n_4XYFxF9KF4-174" value="" style="curved=0;startArrow=none;endArrow=block;endSize=16;endFill=0;exitX=0.51;exitY=1;entryX=0.602;entryY=0;rounded=0;entryDx=0;entryDy=0;entryPerimeter=0;fontSize=15;" edge="1" parent="1" source="MRuk5xu8n_4XYFxF9KF4-158" target="MRuk5xu8n_4XYFxF9KF4-143">
          <mxGeometry relative="1" as="geometry">
            <Array as="points">
              <mxPoint x="2770" y="490" />
              <mxPoint x="2160" y="500" />
            </Array>
          </mxGeometry>
        </mxCell>
        <mxCell id="MRuk5xu8n_4XYFxF9KF4-143" value="DifficultyCalculator" style="swimlane;fontStyle=1;align=center;verticalAlign=top;childLayout=stackLayout;horizontal=1;startSize=27.5;horizontalStack=0;resizeParent=1;resizeParentMax=0;resizeLast=0;collapsible=0;marginBottom=0;fontSize=15;" vertex="1" parent="1">
          <mxGeometry x="1760" y="670" width="664" height="175.5" as="geometry" />
        </mxCell>
        <mxCell id="MRuk5xu8n_4XYFxF9KF4-144" value="#DifficultyTable difficultyTable" style="text;strokeColor=none;fillColor=none;align=left;verticalAlign=top;spacingLeft=4;spacingRight=4;overflow=hidden;rotatable=0;points=[[0,0.5],[1,0.5]];portConstraint=eastwest;fontSize=15;" vertex="1" parent="MRuk5xu8n_4XYFxF9KF4-143">
          <mxGeometry y="27.5" width="664" height="28" as="geometry" />
        </mxCell>
        <mxCell id="MRuk5xu8n_4XYFxF9KF4-145" style="line;strokeWidth=1;fillColor=none;align=left;verticalAlign=middle;spacingTop=-1;spacingLeft=3;spacingRight=3;rotatable=0;labelPosition=right;points=[];portConstraint=eastwest;strokeColor=inherit;fontSize=15;" vertex="1" parent="MRuk5xu8n_4XYFxF9KF4-143">
          <mxGeometry y="55.5" width="664" height="8" as="geometry" />
        </mxCell>
        <mxCell id="MRuk5xu8n_4XYFxF9KF4-146" value="~DifficultyCalculator(DifficultyTable difficultyTable) : DifficultyCalculator" style="text;strokeColor=none;fillColor=none;align=left;verticalAlign=top;spacingLeft=4;spacingRight=4;overflow=hidden;rotatable=0;points=[[0,0.5],[1,0.5]];portConstraint=eastwest;fontSize=15;" vertex="1" parent="MRuk5xu8n_4XYFxF9KF4-143">
          <mxGeometry y="63.5" width="664" height="28" as="geometry" />
        </mxCell>
        <mxCell id="MRuk5xu8n_4XYFxF9KF4-147" value="~getSpawnAmount(int cost, ref int levelValue) : int" style="text;strokeColor=none;fillColor=none;align=left;verticalAlign=top;spacingLeft=4;spacingRight=4;overflow=hidden;rotatable=0;points=[[0,0.5],[1,0.5]];portConstraint=eastwest;fontSize=15;" vertex="1" parent="MRuk5xu8n_4XYFxF9KF4-143">
          <mxGeometry y="91.5" width="664" height="28" as="geometry" />
        </mxCell>
        <mxCell id="MRuk5xu8n_4XYFxF9KF4-148" value="~getEnemyRanks() : Godot.Collections.Array&lt;int&gt;" style="text;strokeColor=none;fillColor=none;align=left;verticalAlign=top;spacingLeft=4;spacingRight=4;overflow=hidden;rotatable=0;points=[[0,0.5],[1,0.5]];portConstraint=eastwest;fontSize=15;" vertex="1" parent="MRuk5xu8n_4XYFxF9KF4-143">
          <mxGeometry y="119.5" width="664" height="28" as="geometry" />
        </mxCell>
        <mxCell id="MRuk5xu8n_4XYFxF9KF4-149" value="+CalculateSpawnOrder(int roundNumber) : System.Collections.Generic.List&lt;SpawnOrder&gt;" style="text;strokeColor=none;fillColor=none;align=left;verticalAlign=top;spacingLeft=4;spacingRight=4;overflow=hidden;rotatable=0;points=[[0,0.5],[1,0.5]];portConstraint=eastwest;fontSize=15;" vertex="1" parent="MRuk5xu8n_4XYFxF9KF4-143">
          <mxGeometry y="147.5" width="664" height="28" as="geometry" />
        </mxCell>
        <mxCell id="MRuk5xu8n_4XYFxF9KF4-177" value="" style="curved=0;startArrow=diamondThin;startSize=14;startFill=0;endArrow=none;rounded=0;fontSize=15;" edge="1" parent="1">
          <mxGeometry relative="1" as="geometry">
            <Array as="points">
              <mxPoint x="2090" y="40" />
              <mxPoint x="960" y="40" />
              <mxPoint x="960" y="500" />
              <mxPoint x="1060" y="500" />
            </Array>
            <mxPoint x="2090" y="180" as="sourcePoint" />
            <mxPoint x="1060" y="740" as="targetPoint" />
          </mxGeometry>
        </mxCell>
        <mxCell id="MRuk5xu8n_4XYFxF9KF4-178" value="" style="curved=0;startArrow=diamondThin;startSize=14;startFill=0;endArrow=none;entryX=0.307;entryY=-0.008;rounded=0;entryDx=0;entryDy=0;exitX=0.5;exitY=0;exitDx=0;exitDy=0;entryPerimeter=0;fontSize=15;" edge="1" parent="1" source="MRuk5xu8n_4XYFxF9KF4-158" target="MRuk5xu8n_4XYFxF9KF4-135">
          <mxGeometry relative="1" as="geometry">
            <Array as="points">
              <mxPoint x="2764" />
              <mxPoint x="910" />
              <mxPoint x="910" y="530" />
              <mxPoint x="1014" y="530" />
            </Array>
            <mxPoint x="2040" y="180" as="sourcePoint" />
            <mxPoint x="997" y="731" as="targetPoint" />
          </mxGeometry>
        </mxCell>
      </root>
    </mxGraphModel>
  </diagram>
</mxfile>
